<svg width="28" height="28" viewBox="0 0 28 28" fill="none" xmlns="http://www.w3.org/2000/svg">
<path d="M14 0C6.125 0 0 6.125 0 14C0 23.1875 8.3125 27.125 9.625 27.125C10.5 27.125 10.5 26.6875 10.5 26.25V24.0625C7.4375 24.9375 6.125 23.1875 5.6875 21.875C5.6875 21.875 5.6875 21.4375 4.8125 20.5625C4.375 20.125 2.625 19.25 4.375 19.25C5.6875 19.25 6.5625 21 6.5625 21C7.875 22.75 9.625 22.3125 10.5 21.875C10.5 21 11.375 20.125 11.375 20.125C7.875 19.6875 5.25 18.375 5.25 13.5625C5.25 11.8125 5.6875 10.5 6.5625 9.625C6.5625 9.625 5.6875 7.875 6.5625 5.6875C6.5625 5.6875 8.75 5.6875 10.5 7.4375C11.8125 6.5625 16.1875 6.5625 17.5 7.4375C19.25 5.6875 21.4375 5.6875 21.4375 5.6875C22.3125 8.75 21.4375 9.625 21.4375 9.625C22.3125 10.5 22.75 11.8125 22.75 13.5625C22.75 18.375 19.6875 19.6875 16.625 20.125C17.0625 20.5625 17.5 21.4375 17.5 22.75V26.25C17.5 26.6875 17.5 27.125 18.375 27.125C19.6875 27.125 28 23.1875 28 14C28 6.125 21.875 0 14 0Z" fill="#FBFAF8"/>
</svg>
