<svg width="28" height="28" viewBox="0 0 28 28" fill="none" xmlns="http://www.w3.org/2000/svg">
<path d="M5.48695 0C2.46956 0 0 2.4695 0 5.48695V22.5139C0 25.5313 2.4695 28 5.48695 28H22.5139C25.5314 28 28 25.5314 28 22.5139V5.48695C28 2.46956 25.5314 0 22.5139 0H5.48695ZM6.86701 4.62056C8.31378 4.62056 9.20493 5.57035 9.23244 6.81882C9.23244 8.03974 8.31373 9.01622 6.83902 9.01622H6.81188C5.39264 9.01622 4.47532 8.03979 4.47532 6.81882C4.47532 5.57037 5.4204 4.62056 6.86698 4.62056H6.86701ZM19.3347 10.4558C22.1171 10.4558 24.2029 12.2744 24.2029 16.1825V23.4783H19.9744V16.6717C19.9744 14.9612 19.3624 13.7943 17.8321 13.7943C16.6639 13.7943 15.9676 14.5808 15.6619 15.3406C15.5502 15.6125 15.5227 15.9921 15.5227 16.3724V23.4783H11.2942C11.2942 23.4783 11.3497 11.9481 11.2942 10.7542H15.5236V12.556C16.0855 11.6891 17.0907 10.4558 19.3347 10.4558V10.4558ZM4.72474 10.7551H8.95327V23.4783H4.72474V10.7551V10.7551Z" fill="#FBFAF8"/>
</svg>
