<svg width="28" height="23" viewBox="0 0 28 23" fill="none" xmlns="http://www.w3.org/2000/svg">
<path d="M28 2.82709C26.9703 3.27127 25.8498 3.59094 24.6956 3.71545C25.8939 3.00354 26.7913 1.87884 27.2193 0.552366C26.0949 1.22129 24.863 1.69035 23.5784 1.93874C23.0415 1.36476 22.3922 0.907506 21.6708 0.595463C20.9495 0.283421 20.1716 0.123278 19.3857 0.125014C16.2057 0.125014 13.6484 2.70259 13.6484 5.86567C13.6484 6.30985 13.7022 6.75403 13.7897 7.18138C9.02824 6.93237 4.78164 4.65764 1.95842 1.17489C1.444 2.05354 1.17442 3.05398 1.17774 4.07214C1.17774 6.0642 2.1906 7.82072 3.73513 8.85377C2.82492 8.81793 1.93602 8.56774 1.14073 8.12357V8.19424C1.14073 10.9838 3.11261 13.2955 5.74066 13.8272C5.24721 13.9554 4.7396 14.021 4.22978 14.0224C3.85627 14.0224 3.50294 13.9854 3.14626 13.9349C3.87309 16.2096 5.98966 17.8618 8.51003 17.9157C6.53816 19.4602 4.06826 20.3687 1.38637 20.3687C0.90518 20.3687 0.461002 20.3519 0 20.2981C2.54392 21.9301 5.56231 22.8723 8.81288 22.8723C19.3655 22.8723 25.1398 14.1301 25.1398 6.54203C25.1398 6.29302 25.1398 6.04401 25.1229 5.79501C26.2401 4.97732 27.2193 3.96446 28 2.82709Z" fill="#FBFAF8"/>
</svg>
